<svg width="50" height="50" viewBox="0 0 50 50" fill="none" xmlns="http://www.w3.org/2000/svg">
<path d="M42.8048 16.9712C42.7842 15.4235 42.4945 13.8912 41.9486 12.4428C41.4752 11.2211 40.7522 10.1116 39.8258 9.18517C38.8993 8.25872 37.7898 7.53571 36.5681 7.06233C35.1384 6.52562 33.6279 6.23542 32.1011 6.20407C30.1352 6.1162 29.512 6.09167 24.5218 6.09167C19.5316 6.09167 18.892 6.09167 16.9404 6.20407C15.4143 6.23565 13.9045 6.52585 12.4754 7.06233C11.2535 7.53538 10.1438 8.25827 9.21735 9.18476C8.29086 10.1113 7.56797 11.2209 7.09492 12.4428C6.55714 13.8715 6.26756 15.3816 6.2387 16.9078C6.15083 18.8757 6.12427 19.499 6.12427 24.4892C6.12427 29.4794 6.12427 30.1169 6.2387 32.0705C6.26936 33.599 6.55749 35.1071 7.09492 36.5396C7.56876 37.7611 8.29219 38.8704 9.219 39.7965C10.1458 40.7226 11.2556 41.4452 12.4775 41.9181C13.9027 42.4763 15.4127 42.7873 16.9425 42.8376C18.9104 42.9255 19.5336 42.9521 24.5238 42.9521C29.514 42.9521 30.1536 42.9521 32.1051 42.8376C33.6319 42.8076 35.1425 42.518 36.5722 41.9814C37.7936 41.5075 38.9028 40.7843 39.8292 39.8579C40.7556 38.9315 41.4788 37.8223 41.9527 36.6009C42.4901 35.1705 42.7783 33.6624 42.8089 32.1318C42.8968 30.166 42.9234 29.5427 42.9234 24.5505C42.9193 19.5603 42.9193 18.9268 42.8048 16.9712ZM24.5095 33.926C19.2904 33.926 15.0625 29.698 15.0625 24.479C15.0625 19.2599 19.2904 15.0319 24.5095 15.0319C27.015 15.0319 29.4179 16.0272 31.1896 17.7989C32.9612 19.5706 33.9565 21.9734 33.9565 24.479C33.9565 26.9845 32.9612 29.3874 31.1896 31.159C29.4179 32.9307 27.015 33.926 24.5095 33.926ZM34.3325 16.8854C33.1126 16.8854 32.1297 15.9004 32.1297 14.6825C32.1297 14.3933 32.1866 14.107 32.2973 13.8399C32.4079 13.5727 32.5701 13.33 32.7746 13.1255C32.979 12.9211 33.2218 12.7589 33.4889 12.6482C33.756 12.5376 34.0424 12.4806 34.3315 12.4806C34.6207 12.4806 34.907 12.5376 35.1741 12.6482C35.4413 12.7589 35.684 12.9211 35.8885 13.1255C36.0929 13.33 36.2551 13.5727 36.3658 13.8399C36.4764 14.107 36.5334 14.3933 36.5334 14.6825C36.5334 15.9004 35.5484 16.8854 34.3325 16.8854Z" fill="#FEFEFE"/>
<path d="M24.5096 30.6156C27.8987 30.6156 30.6462 27.8681 30.6462 24.479C30.6462 21.0899 27.8987 18.3424 24.5096 18.3424C21.1204 18.3424 18.373 21.0899 18.373 24.479C18.373 27.8681 21.1204 30.6156 24.5096 30.6156Z" fill="#FEFEFE"/>
</svg>
