<svg width="44" height="43" viewBox="0 0 44 43" fill="none" xmlns="http://www.w3.org/2000/svg">
<path d="M21.7554 0.850098C10.4874 0.850098 1.35321 9.98431 1.35321 21.2523C1.35321 32.5202 10.4874 41.6544 21.7554 41.6544C33.0233 41.6544 42.1575 32.5202 42.1575 21.2523C42.1575 9.98431 33.0233 0.850098 21.7554 0.850098ZM30.0544 17.5629C30.0629 17.7371 30.065 17.9114 30.065 18.0814C30.065 23.3945 26.0249 29.5173 18.6334 29.5173C16.4493 29.5209 14.3106 28.8936 12.4745 27.7108C12.7869 27.7491 13.1078 27.7639 13.433 27.7639C15.3159 27.7639 17.048 27.1243 18.423 26.0446C17.5851 26.0282 16.7731 25.7507 16.1004 25.2509C15.4276 24.7511 14.9276 24.0538 14.6699 23.2563C15.2716 23.3708 15.8916 23.3468 16.4827 23.1862C15.5732 23.0023 14.7553 22.5095 14.1677 21.7913C13.5801 21.0732 13.2589 20.1739 13.2587 19.246V19.1972C13.8007 19.4968 14.4212 19.6796 15.08 19.7008C14.2274 19.1333 13.6238 18.2614 13.3927 17.2635C13.1616 16.2656 13.3205 15.2172 13.8368 14.3325C14.8462 15.5737 16.1049 16.589 17.5316 17.3127C18.9583 18.0365 20.5211 18.4526 22.1188 18.5341C21.9157 17.6719 22.0031 16.7668 22.3675 15.9594C22.7318 15.152 23.3527 14.4876 24.1336 14.0696C24.9146 13.6515 25.8117 13.5031 26.6857 13.6475C27.5596 13.7919 28.3613 14.221 28.9663 14.8681C29.8656 14.6901 30.728 14.3603 31.5165 13.8926C31.2168 14.8237 30.5892 15.6144 29.7505 16.1177C30.5471 16.0218 31.325 15.8076 32.0585 15.4823C31.5197 16.2896 30.841 16.9942 30.0544 17.5629Z" fill="#FEFEFE"/>
</svg>
